<mxfile host="Electron" agent="Mozilla/5.0 (Windows NT 10.0; Win64; x64) AppleWebKit/537.36 (KHTML, like Gecko) draw.io/24.7.8 Chrome/128.0.6613.36 Electron/32.0.1 Safari/537.36" version="24.7.8">
  <diagram name="Page-1" id="EC2qeLSPxbTugtZkHzvH">
    <mxGraphModel dx="1036" dy="606" grid="1" gridSize="10" guides="1" tooltips="1" connect="1" arrows="1" fold="1" page="1" pageScale="1" pageWidth="850" pageHeight="1100" math="0" shadow="0">
      <root>
        <mxCell id="0" />
        <mxCell id="1" parent="0" />
        <mxCell id="-O-RrX4HGV9XYu0r9Mag-1" value="User" style="shape=umlLifeline;perimeter=lifelinePerimeter;whiteSpace=wrap;container=1;dropTarget=0;collapsible=0;recursiveResize=0;outlineConnect=0;portConstraint=eastwest;newEdgeStyle={&quot;edgeStyle&quot;:&quot;elbowEdgeStyle&quot;,&quot;elbow&quot;:&quot;vertical&quot;,&quot;curved&quot;:0,&quot;rounded&quot;:0};size=65;" vertex="1" parent="1">
          <mxGeometry x="20" y="20" width="150" height="1290" as="geometry" />
        </mxCell>
        <mxCell id="-O-RrX4HGV9XYu0r9Mag-2" value="Website" style="shape=umlLifeline;perimeter=lifelinePerimeter;whiteSpace=wrap;container=1;dropTarget=0;collapsible=0;recursiveResize=0;outlineConnect=0;portConstraint=eastwest;newEdgeStyle={&quot;edgeStyle&quot;:&quot;elbowEdgeStyle&quot;,&quot;elbow&quot;:&quot;vertical&quot;,&quot;curved&quot;:0,&quot;rounded&quot;:0};size=65;" vertex="1" parent="1">
          <mxGeometry x="310" y="20" width="150" height="1290" as="geometry" />
        </mxCell>
        <mxCell id="-O-RrX4HGV9XYu0r9Mag-3" value="Database" style="shape=umlLifeline;perimeter=lifelinePerimeter;whiteSpace=wrap;container=1;dropTarget=0;collapsible=0;recursiveResize=0;outlineConnect=0;portConstraint=eastwest;newEdgeStyle={&quot;edgeStyle&quot;:&quot;elbowEdgeStyle&quot;,&quot;elbow&quot;:&quot;vertical&quot;,&quot;curved&quot;:0,&quot;rounded&quot;:0};size=65;" vertex="1" parent="1">
          <mxGeometry x="635" y="20" width="150" height="1290" as="geometry" />
        </mxCell>
        <mxCell id="-O-RrX4HGV9XYu0r9Mag-4" value="AI_Model" style="shape=umlLifeline;perimeter=lifelinePerimeter;whiteSpace=wrap;container=1;dropTarget=0;collapsible=0;recursiveResize=0;outlineConnect=0;portConstraint=eastwest;newEdgeStyle={&quot;edgeStyle&quot;:&quot;elbowEdgeStyle&quot;,&quot;elbow&quot;:&quot;vertical&quot;,&quot;curved&quot;:0,&quot;rounded&quot;:0};size=65;" vertex="1" parent="1">
          <mxGeometry x="835" y="20" width="150" height="1290" as="geometry" />
        </mxCell>
        <mxCell id="-O-RrX4HGV9XYu0r9Mag-5" value="alt" style="shape=umlFrame;dashed=1;pointerEvents=0;dropTarget=0;strokeColor=#B3B3B3;height=20;width=30" vertex="1" parent="1">
          <mxGeometry x="84" y="689" width="637" height="526" as="geometry" />
        </mxCell>
        <mxCell id="-O-RrX4HGV9XYu0r9Mag-6" value="[Product Available]" style="text;strokeColor=none;fillColor=none;align=center;verticalAlign=middle;whiteSpace=wrap;" vertex="1" parent="-O-RrX4HGV9XYu0r9Mag-5">
          <mxGeometry x="30" width="607" height="20" as="geometry" />
        </mxCell>
        <mxCell id="-O-RrX4HGV9XYu0r9Mag-7" value="[Product Not Available]" style="shape=line;dashed=1;whiteSpace=wrap;verticalAlign=top;labelPosition=center;verticalLabelPosition=middle;align=center;strokeColor=#B3B3B3;" vertex="1" parent="-O-RrX4HGV9XYu0r9Mag-5">
          <mxGeometry y="430" width="637" height="3" as="geometry" />
        </mxCell>
        <mxCell id="-O-RrX4HGV9XYu0r9Mag-8" value="Browse Available Products" style="verticalAlign=bottom;edgeStyle=elbowEdgeStyle;elbow=vertical;curved=0;rounded=0;endArrow=block;" edge="1" parent="1" source="-O-RrX4HGV9XYu0r9Mag-1" target="-O-RrX4HGV9XYu0r9Mag-2">
          <mxGeometry relative="1" as="geometry">
            <Array as="points">
              <mxPoint x="249" y="129" />
            </Array>
          </mxGeometry>
        </mxCell>
        <mxCell id="-O-RrX4HGV9XYu0r9Mag-9" value="Fetch Available Products" style="verticalAlign=bottom;edgeStyle=elbowEdgeStyle;elbow=vertical;curved=0;rounded=0;endArrow=block;" edge="1" parent="1" source="-O-RrX4HGV9XYu0r9Mag-2" target="-O-RrX4HGV9XYu0r9Mag-3">
          <mxGeometry relative="1" as="geometry">
            <Array as="points">
              <mxPoint x="556" y="183" />
            </Array>
          </mxGeometry>
        </mxCell>
        <mxCell id="-O-RrX4HGV9XYu0r9Mag-10" value="Send Product List" style="verticalAlign=bottom;edgeStyle=elbowEdgeStyle;elbow=vertical;curved=0;rounded=0;dashed=1;dashPattern=2 3;endArrow=block;" edge="1" parent="1" source="-O-RrX4HGV9XYu0r9Mag-3" target="-O-RrX4HGV9XYu0r9Mag-2">
          <mxGeometry relative="1" as="geometry">
            <Array as="points">
              <mxPoint x="559" y="237" />
            </Array>
          </mxGeometry>
        </mxCell>
        <mxCell id="-O-RrX4HGV9XYu0r9Mag-11" value="Display Available Products" style="verticalAlign=bottom;edgeStyle=elbowEdgeStyle;elbow=vertical;curved=0;rounded=0;dashed=1;dashPattern=2 3;endArrow=block;" edge="1" parent="1" source="-O-RrX4HGV9XYu0r9Mag-2" target="-O-RrX4HGV9XYu0r9Mag-1">
          <mxGeometry relative="1" as="geometry">
            <Array as="points">
              <mxPoint x="252" y="291" />
            </Array>
          </mxGeometry>
        </mxCell>
        <mxCell id="-O-RrX4HGV9XYu0r9Mag-12" value="Upload Image for AI Analysis" style="verticalAlign=bottom;edgeStyle=elbowEdgeStyle;elbow=vertical;curved=0;rounded=0;endArrow=block;" edge="1" parent="1" source="-O-RrX4HGV9XYu0r9Mag-1" target="-O-RrX4HGV9XYu0r9Mag-2">
          <mxGeometry relative="1" as="geometry">
            <Array as="points">
              <mxPoint x="249" y="345" />
            </Array>
          </mxGeometry>
        </mxCell>
        <mxCell id="-O-RrX4HGV9XYu0r9Mag-13" value="Send Image for Analysis" style="verticalAlign=bottom;edgeStyle=elbowEdgeStyle;elbow=vertical;curved=0;rounded=0;endArrow=block;" edge="1" parent="1" source="-O-RrX4HGV9XYu0r9Mag-2" target="-O-RrX4HGV9XYu0r9Mag-4">
          <mxGeometry relative="1" as="geometry">
            <Array as="points">
              <mxPoint x="656" y="399" />
            </Array>
          </mxGeometry>
        </mxCell>
        <mxCell id="-O-RrX4HGV9XYu0r9Mag-14" value="Return Image Information" style="verticalAlign=bottom;edgeStyle=elbowEdgeStyle;elbow=vertical;curved=0;rounded=0;dashed=1;dashPattern=2 3;endArrow=block;" edge="1" parent="1" source="-O-RrX4HGV9XYu0r9Mag-4" target="-O-RrX4HGV9XYu0r9Mag-2">
          <mxGeometry relative="1" as="geometry">
            <Array as="points">
              <mxPoint x="659" y="453" />
            </Array>
          </mxGeometry>
        </mxCell>
        <mxCell id="-O-RrX4HGV9XYu0r9Mag-15" value="Display AI Analysis Result" style="verticalAlign=bottom;edgeStyle=elbowEdgeStyle;elbow=vertical;curved=0;rounded=0;dashed=1;dashPattern=2 3;endArrow=block;" edge="1" parent="1" source="-O-RrX4HGV9XYu0r9Mag-2" target="-O-RrX4HGV9XYu0r9Mag-1">
          <mxGeometry relative="1" as="geometry">
            <Array as="points">
              <mxPoint x="252" y="507" />
            </Array>
          </mxGeometry>
        </mxCell>
        <mxCell id="-O-RrX4HGV9XYu0r9Mag-16" value="Select Product and Place Order" style="verticalAlign=bottom;edgeStyle=elbowEdgeStyle;elbow=vertical;curved=0;rounded=0;endArrow=block;" edge="1" parent="1" source="-O-RrX4HGV9XYu0r9Mag-1" target="-O-RrX4HGV9XYu0r9Mag-2">
          <mxGeometry relative="1" as="geometry">
            <Array as="points">
              <mxPoint x="249" y="561" />
            </Array>
          </mxGeometry>
        </mxCell>
        <mxCell id="-O-RrX4HGV9XYu0r9Mag-17" value="Check Product Availability" style="verticalAlign=bottom;edgeStyle=elbowEdgeStyle;elbow=vertical;curved=0;rounded=0;endArrow=block;" edge="1" parent="1" source="-O-RrX4HGV9XYu0r9Mag-2" target="-O-RrX4HGV9XYu0r9Mag-3">
          <mxGeometry relative="1" as="geometry">
            <Array as="points">
              <mxPoint x="556" y="615" />
            </Array>
          </mxGeometry>
        </mxCell>
        <mxCell id="-O-RrX4HGV9XYu0r9Mag-18" value="Return Availability Status" style="verticalAlign=bottom;edgeStyle=elbowEdgeStyle;elbow=vertical;curved=0;rounded=0;dashed=1;dashPattern=2 3;endArrow=block;" edge="1" parent="1" source="-O-RrX4HGV9XYu0r9Mag-3" target="-O-RrX4HGV9XYu0r9Mag-2">
          <mxGeometry relative="1" as="geometry">
            <Array as="points">
              <mxPoint x="559" y="669" />
            </Array>
          </mxGeometry>
        </mxCell>
        <mxCell id="-O-RrX4HGV9XYu0r9Mag-19" value="Order Confirmation" style="verticalAlign=bottom;edgeStyle=elbowEdgeStyle;elbow=vertical;curved=0;rounded=0;dashed=1;dashPattern=2 3;endArrow=block;" edge="1" parent="1" source="-O-RrX4HGV9XYu0r9Mag-2" target="-O-RrX4HGV9XYu0r9Mag-1">
          <mxGeometry relative="1" as="geometry">
            <Array as="points">
              <mxPoint x="252" y="770" />
            </Array>
          </mxGeometry>
        </mxCell>
        <mxCell id="-O-RrX4HGV9XYu0r9Mag-20" value="Request Payment Details" style="verticalAlign=bottom;edgeStyle=elbowEdgeStyle;elbow=vertical;curved=0;rounded=0;endArrow=block;" edge="1" parent="1" source="-O-RrX4HGV9XYu0r9Mag-1" target="-O-RrX4HGV9XYu0r9Mag-2">
          <mxGeometry relative="1" as="geometry">
            <Array as="points">
              <mxPoint x="249" y="824" />
            </Array>
          </mxGeometry>
        </mxCell>
        <mxCell id="-O-RrX4HGV9XYu0r9Mag-21" value="Show Payment Options" style="verticalAlign=bottom;edgeStyle=elbowEdgeStyle;elbow=vertical;curved=0;rounded=0;dashed=1;dashPattern=2 3;endArrow=block;" edge="1" parent="1" source="-O-RrX4HGV9XYu0r9Mag-2" target="-O-RrX4HGV9XYu0r9Mag-1">
          <mxGeometry relative="1" as="geometry">
            <Array as="points">
              <mxPoint x="252" y="878" />
            </Array>
          </mxGeometry>
        </mxCell>
        <mxCell id="-O-RrX4HGV9XYu0r9Mag-22" value="Make Payment" style="verticalAlign=bottom;edgeStyle=elbowEdgeStyle;elbow=vertical;curved=0;rounded=0;endArrow=block;" edge="1" parent="1" source="-O-RrX4HGV9XYu0r9Mag-1" target="-O-RrX4HGV9XYu0r9Mag-2">
          <mxGeometry relative="1" as="geometry">
            <Array as="points">
              <mxPoint x="249" y="932" />
            </Array>
          </mxGeometry>
        </mxCell>
        <mxCell id="-O-RrX4HGV9XYu0r9Mag-23" value="Process Payment &amp; Set Order Status" style="verticalAlign=bottom;edgeStyle=elbowEdgeStyle;elbow=vertical;curved=0;rounded=0;endArrow=block;" edge="1" parent="1" source="-O-RrX4HGV9XYu0r9Mag-2" target="-O-RrX4HGV9XYu0r9Mag-3">
          <mxGeometry relative="1" as="geometry">
            <Array as="points">
              <mxPoint x="556" y="986" />
            </Array>
          </mxGeometry>
        </mxCell>
        <mxCell id="-O-RrX4HGV9XYu0r9Mag-24" value="Order Number Assigned" style="verticalAlign=bottom;edgeStyle=elbowEdgeStyle;elbow=vertical;curved=0;rounded=0;dashed=1;dashPattern=2 3;endArrow=block;" edge="1" parent="1" source="-O-RrX4HGV9XYu0r9Mag-3" target="-O-RrX4HGV9XYu0r9Mag-2">
          <mxGeometry relative="1" as="geometry">
            <Array as="points">
              <mxPoint x="559" y="1040" />
            </Array>
          </mxGeometry>
        </mxCell>
        <mxCell id="-O-RrX4HGV9XYu0r9Mag-25" value="Display Order Details" style="verticalAlign=bottom;edgeStyle=elbowEdgeStyle;elbow=vertical;curved=0;rounded=0;dashed=1;dashPattern=2 3;endArrow=block;" edge="1" parent="1" source="-O-RrX4HGV9XYu0r9Mag-2" target="-O-RrX4HGV9XYu0r9Mag-1">
          <mxGeometry relative="1" as="geometry">
            <Array as="points">
              <mxPoint x="252" y="1094" />
            </Array>
          </mxGeometry>
        </mxCell>
        <mxCell id="-O-RrX4HGV9XYu0r9Mag-26" value="Notify Product Unavailability" style="verticalAlign=bottom;edgeStyle=elbowEdgeStyle;elbow=vertical;curved=0;rounded=0;dashed=1;dashPattern=2 3;endArrow=block;" edge="1" parent="1" source="-O-RrX4HGV9XYu0r9Mag-2" target="-O-RrX4HGV9XYu0r9Mag-1">
          <mxGeometry relative="1" as="geometry">
            <Array as="points">
              <mxPoint x="252" y="1195" />
            </Array>
          </mxGeometry>
        </mxCell>
        <mxCell id="-O-RrX4HGV9XYu0r9Mag-27" value="Text" style="text;html=1;align=center;verticalAlign=middle;resizable=0;points=[];autosize=1;strokeColor=none;fillColor=none;" vertex="1" parent="1">
          <mxGeometry x="465" y="1408" width="50" height="30" as="geometry" />
        </mxCell>
      </root>
    </mxGraphModel>
  </diagram>
</mxfile>
